<?xml version="1.0" encoding="UTF-8" standalone="no"?><svg width="24" height="35" viewBox="0 0 24 35" fill="none" xmlns="http://www.w3.org/2000/svg">
<g clip-path="url(#clip0_668_305)">
<path d="M5.83333 34.9997C9.05333 34.9997 11.6667 32.3863 11.6667 29.1663V23.333H5.83333C2.61333 23.333 0 25.9463 0 29.1663C0 32.3863 2.61333 34.9997 5.83333 34.9997Z" fill="#0ACF83"/>
<path d="M0 17.5003C0 14.2803 2.61333 11.667 5.83333 11.667H11.6667V23.3337H5.83333C2.61333 23.3337 0 20.7203 0 17.5003Z" fill="#A259FF"/>
<path d="M0 5.83333C0 2.61333 2.61333 0 5.83333 0H11.6667V11.6667H5.83333C2.61333 11.6667 0 9.05333 0 5.83333Z" fill="#F24E1E"/>
<path d="M11.6665 0H17.4998C20.7198 0 23.3332 2.61333 23.3332 5.83333C23.3332 9.05333 20.7198 11.6667 17.4998 11.6667H11.6665V0Z" fill="#FF7262"/>
<path d="M23.3332 17.5003C23.3332 20.7203 20.7198 23.3337 17.4998 23.3337C14.2798 23.3337 11.6665 20.7203 11.6665 17.5003C11.6665 14.2803 14.2798 11.667 17.4998 11.667C20.7198 11.667 23.3332 14.2803 23.3332 17.5003Z" fill="#1ABCFE"/>
</g>
<defs>
<clipPath id="clip0_668_305">
<rect width="23.3333" height="35" fill="white"/>
</clipPath>
</defs>
</svg>
